<svg xmlns="http://www.w3.org/2000/svg" viewBox="0 0 107.95 39.92"><defs><style>.cls-1{fill:#fff;}</style></defs><g id="Layer_2" data-name="Layer 2"><g id="Layer_1-2" data-name="Layer 1"><g id="logo-white"><g id="Group_4" data-name="Group 4"><g id="Group_1" data-name="Group 1"><g id="Path_1" data-name="Path 1"><path class="cls-1" d="M32.27,39.86V36.24h1.28a2,2,0,0,1,.76.13,2,2,0,0,1,.61.38,1.77,1.77,0,0,1,.4.58,1.81,1.81,0,0,1,.14.72,1.6,1.6,0,0,1-.14.72,1.77,1.77,0,0,1-.4.58,1.82,1.82,0,0,1-.61.37,2,2,0,0,1-.76.14Zm1.29-3.14h-.74v2.65h.74a1.39,1.39,0,0,0,.53-.1,1.19,1.19,0,0,0,.42-.28,1.46,1.46,0,0,0,.29-.41,1.6,1.6,0,0,0,.1-.52,1.31,1.31,0,0,0-.39-1,1.17,1.17,0,0,0-.42-.27A1.4,1.4,0,0,0,33.56,36.72Z"></path></g><g id="Path_2" data-name="Path 2"><path class="cls-1" d="M36,39.86V36.24h2.67v.47H36.58V37.8H38v.47h-1.4v1.11h2.15v.48Z"></path></g><g id="Path_3" data-name="Path 3"><path class="cls-1" d="M41.15,39.6,39.8,36.91v3h-.51V36.24H40l1.14,2.31,1.13-2.31H43v3.62H42.5v-3Z"></path></g><g id="Path_4" data-name="Path 4"><path class="cls-1" d="M47.36,38.05a1.83,1.83,0,0,1-.15.73,1.67,1.67,0,0,1-.4.59,1.75,1.75,0,0,1-.6.4,2,2,0,0,1-1.48,0,1.86,1.86,0,0,1-.6-.4,2,2,0,0,1-.4-.59,1.86,1.86,0,0,1,1-2.44h0a1.9,1.9,0,0,1,1.48,0,1.75,1.75,0,0,1,.6.4,1.81,1.81,0,0,1,.4.59A1.83,1.83,0,0,1,47.36,38.05Zm-.55,0a1.4,1.4,0,0,0-.1-.54,1.57,1.57,0,0,0-.28-.44,1.42,1.42,0,0,0-.43-.29,1.34,1.34,0,0,0-.52-.1,1.39,1.39,0,0,0-.53.1,1.3,1.3,0,0,0-.7.73A1.45,1.45,0,0,0,44.53,39a1.35,1.35,0,0,0,.95.4,1.4,1.4,0,0,0,.53-.11,1.22,1.22,0,0,0,.42-.29,1.23,1.23,0,0,0,.28-.43,1.44,1.44,0,0,0,.1-.54Z"></path></g><g id="Path_5" data-name="Path 5"><path class="cls-1" d="M47.94,39.86V36.24h.55v1.68l1.75-1.68h.68L49.06,38,51,39.86h-.75l-1.75-1.72v1.72h-.55Z"></path></g><g id="Path_6" data-name="Path 6"><path class="cls-1" d="M51.31,39.86V36.24H53a1.2,1.2,0,0,1,.87.3,1,1,0,0,1,.34.77,1.07,1.07,0,0,1-.2.62,1.14,1.14,0,0,1-.54.38l.8,1.55h-.6l-.75-1.48h-1v1.48Zm1.6-3.15H51.85v1.21h1a.76.76,0,0,0,.51-.16.6.6,0,0,0,0-.84s0,0,0,0a.72.72,0,0,0-.51-.17Z"></path></g><g id="Path_7" data-name="Path 7"><path class="cls-1" d="M54.4,39.86l1.5-3.62h.64L58,39.86h-.59L57,38.8H55.39L55,39.86Zm1.17-1.51h1.27l-.63-1.59Z"></path></g><g id="Path_8" data-name="Path 8"><path class="cls-1" d="M58.17,39.26l.33-.38a2.24,2.24,0,0,0,.6.42,1.44,1.44,0,0,0,.65.15,1.1,1.1,0,0,0,.63-.18.5.5,0,0,0,.24-.43.41.41,0,0,0-.17-.37,1.26,1.26,0,0,0-.56-.2l-.61-.1a1.37,1.37,0,0,1-.74-.32.84.84,0,0,1-.24-.62.91.91,0,0,1,.37-.76,1.52,1.52,0,0,1,1-.28,2.53,2.53,0,0,1,.77.12,2.14,2.14,0,0,1,.68.37l-.3.41a2.29,2.29,0,0,0-.59-.33,1.35,1.35,0,0,0-.59-.11,1,1,0,0,0-.57.15.44.44,0,0,0-.22.39.39.39,0,0,0,.15.33,1.16,1.16,0,0,0,.5.18l.59.09a1.63,1.63,0,0,1,.84.34.87.87,0,0,1,.27.67,1,1,0,0,1-.1.45,1,1,0,0,1-.29.35,1.42,1.42,0,0,1-.46.23,2.33,2.33,0,0,1-.59.08,2.21,2.21,0,0,1-.84-.17A2.33,2.33,0,0,1,58.17,39.26Z"></path></g><g id="Path_9" data-name="Path 9"><path class="cls-1" d="M61.94,35.76a.31.31,0,0,1-.22-.09.29.29,0,0,1-.09-.22.27.27,0,0,1,.09-.21.33.33,0,0,1,.44,0,.24.24,0,0,1,.09.21.26.26,0,0,1-.09.22A.31.31,0,0,1,61.94,35.76Zm-.27,4.1V36.24h.54v3.62Z"></path></g><g id="Path_10" data-name="Path 10"><path class="cls-1" d="M65.15,39.86l-1.48-3.62h.58l1.23,3.08,1.25-3.08h.56l-1.5,3.62Z"></path></g><g id="Path_11" data-name="Path 11"><path class="cls-1" d="M67.66,39.86V36.24h2.67v.47H68.2V37.8h1.4v.47H68.2v1.11h2.15v.48Z"></path></g><g id="Path_12" data-name="Path 12"><path class="cls-1" d="M71.63,39.86l1.5-3.62h.64l1.47,3.62h-.59l-.41-1.06H72.62l-.43,1.06Zm1.17-1.51h1.26l-.63-1.59Z"></path></g><g id="Path_13" data-name="Path 13"><path class="cls-1" d="M74.65,36.72v-.48h3.09v.48H76.47v3.14h-.54V36.72Z"></path></g><g id="Path_14" data-name="Path 14"><path class="cls-1" d="M78.2,39.86V36.24h.54v3.62Z"></path></g><g id="Path_15" data-name="Path 15"><path class="cls-1" d="M79.48,39.86V36.24H80v3.14h2.09v.48Z"></path></g><g id="Path_16" data-name="Path 16"><path class="cls-1" d="M82.66,39.86V36.24h.54v3.62Z"></path></g><g id="Path_17" data-name="Path 17"><path class="cls-1" d="M85.8,39.6l-1.35-2.69v3h-.51V36.24h.73l1.13,2.31,1.13-2.31h.72v3.62h-.51v-3Z"></path></g><g id="Path_18" data-name="Path 18"><path class="cls-1" d="M89.48,39.86V36.24h1.68a1.16,1.16,0,0,1,.85.3,1.09,1.09,0,0,1,0,1.56,1.27,1.27,0,0,1-.86.3H90v1.46Zm1.62-3.15H90v1.23H91.1a.71.71,0,0,0,.5-.17.55.55,0,0,0,.18-.44.57.57,0,0,0-.18-.45A.71.71,0,0,0,91.1,36.71Z"></path></g><g id="Path_19" data-name="Path 19"><path class="cls-1" d="M92,39.86l1.5-3.62h.64l1.47,3.62H95l-.41-1.06H93l-.43,1.06Zm1.17-1.51h1.26l-.63-1.59Z"></path></g><g id="Path_20" data-name="Path 20"><path class="cls-1" d="M96,39.86V36.24h1.64a1.24,1.24,0,0,1,.88.3,1,1,0,0,1,.33.77.94.94,0,0,1-.2.62,1.14,1.14,0,0,1-.54.38l.81,1.55h-.6l-.75-1.48h-1v1.48Zm1.6-3.15H96.53v1.21h1.06a.79.79,0,0,0,.51-.16.6.6,0,0,0,0-.84l0,0a.8.8,0,0,0-.51-.17Z"></path></g><g id="Path_21" data-name="Path 21"><path class="cls-1" d="M99,36.72v-.48h3.09v.48h-1.27v3.14h-.55V36.72Z"></path></g><g id="Path_22" data-name="Path 22"><path class="cls-1" d="M102.85,35.76a.31.31,0,0,1-.22-.09.26.26,0,0,1-.09-.22.24.24,0,0,1,.09-.21.33.33,0,0,1,.44,0,.27.27,0,0,1,.09.21.29.29,0,0,1-.09.22A.31.31,0,0,1,102.85,35.76Zm-.28,4.1V36.24h.55v3.62Z"></path></g><g id="Path_23" data-name="Path 23"><path class="cls-1" d="M103.53,39.26l.33-.38a2.24,2.24,0,0,0,.6.42,1.51,1.51,0,0,0,.65.15,1.1,1.1,0,0,0,.63-.18.5.5,0,0,0,.25-.43.47.47,0,0,0-.17-.37,1.3,1.3,0,0,0-.57-.2l-.6-.1a1.37,1.37,0,0,1-.74-.32.84.84,0,0,1-.24-.62.91.91,0,0,1,.37-.76,1.52,1.52,0,0,1,1-.28,2.53,2.53,0,0,1,.77.12,2.14,2.14,0,0,1,.68.37l-.3.41a2.29,2.29,0,0,0-.59-.33,1.51,1.51,0,0,0-.59-.11,1,1,0,0,0-.57.15.44.44,0,0,0-.22.39.39.39,0,0,0,.15.33,1.12,1.12,0,0,0,.5.18l.59.09a1.67,1.67,0,0,1,.84.34.87.87,0,0,1,.27.67,1,1,0,0,1-.1.45,1,1,0,0,1-.29.35,1.42,1.42,0,0,1-.46.23,2.33,2.33,0,0,1-.59.08,2.28,2.28,0,0,1-1.57-.65Z"></path></g><g id="Path_24" data-name="Path 24"><path class="cls-1" d="M107.3,35.76a.31.31,0,0,1-.22-.09.29.29,0,0,1-.09-.22.27.27,0,0,1,.09-.21.33.33,0,0,1,.44,0,.24.24,0,0,1,.09.21.26.26,0,0,1-.09.22A.31.31,0,0,1,107.3,35.76Zm-.27,4.1V36.24h.54v3.62Z"></path></g></g><g id="Group_3" data-name="Group 3"><g id="Path_25" data-name="Path 25"><path class="cls-1" d="M31.91,28.11h1.86V15.74H31.91V12.42h8.71c7,0,9.63,4.11,9.63,9.35,0,4.84-2.56,9.66-9.72,9.66H31.91Zm8.13,0c4.14,0,5.27-2.78,5.27-6.22s-1.07-6.15-5.09-6.15H38.46V28.11Z"></path></g><g id="Path_26" data-name="Path 26"><path class="cls-1" d="M87.51,31.43V28.11H89l4.75-12.37H91.89V12.42h8.59l6,15.69H108v3.32H99.6V28.11h1.91L100.75,26h-6.7l-.73,2.13h1.77v3.32Zm7.55-8.63h4.66l-1.16-3.38c-.42-1.25-.85-2.5-1.1-3.56h-.09a29.31,29.31,0,0,1-1.1,3.56Z"></path></g><g id="Group_2" data-name="Group 2"><g id="Path_27" data-name="Path 27"><path class="cls-1" d="M67,25.39v6h-15V28.11h1.86V15.74H52.07V12.42H66.94v5.75H63.13V15.74H58.56v4.35h5.18v3.26H58.56V28.1h4.63V25.39Z"></path></g><g id="Path_28" data-name="Path 28"><path class="cls-1" d="M87.6,15.74,82.05,31.43H76.5L71.17,15.74H69.56V12.42h8.5v3.32H76l2.5,8.1c.43,1.37.89,3,1,3.78h.12c.15-.76.64-2.44,1-3.78l2.47-8.1H81.13V12.42h8.14v3.32Z"></path></g></g></g></g><g id="Path_29" data-name="Path 29"><path class="cls-1" d="M25.58,24a13.87,13.87,0,0,0-1.34-3.8c-1-2.08-8.16-12.75-10.31-17-.33-.65-.67-1.31-1-2-.31.6-.59,1.19-.9,1.77C10.39,6,4.09,15.67,2.61,18.23a20.67,20.67,0,0,0-2,4.29,14.12,14.12,0,0,0-.35,6.8A12.29,12.29,0,0,0,4.61,36.8a12.53,12.53,0,0,0,7.12,3l.38-10.74,0,0a7.28,7.28,0,0,1-6.76-7.26h0a7.28,7.28,0,0,1,7.27,6.94h0v.15h0L12.73,33a7.91,7.91,0,0,1,7.76-6.37h0a7.92,7.92,0,0,1-7.6,7.9l-.11.11.18,5.2h.29a13.31,13.31,0,0,0,2.26-.29,12.57,12.57,0,0,0,9.32-7.74,12.16,12.16,0,0,0,1-4.33A17.49,17.49,0,0,0,25.58,24Z"></path></g><polygon class="cls-1" points="46.19 5.35 43.92 1.9 42.08 1.9 42.08 8.62 44.02 8.62 44.02 5.19 46.28 8.62 48.13 8.62 48.13 1.9 46.19 1.9 46.19 5.35"></polygon><path class="cls-1" d="M39.94,1.72h0A.83.83,0,0,0,40.8.87v0A.85.85,0,0,0,39.94,0h0a.86.86,0,0,0-.84.87h0A.85.85,0,0,0,39.94,1.72Z"></path><path class="cls-1" d="M37.14,5.16a1.63,1.63,0,0,0,.75-1.42c0-1.14-.87-1.84-2.26-1.84h-3V8.62h3.14c1.42,0,2.3-.74,2.3-1.92A1.72,1.72,0,0,0,37.14,5.16ZM34.53,6h.92c.28,0,.62.09.62.51,0,.12,0,.49-.61.49h-.93Zm.81-1.52h-.81V3.53h.81c.52,0,.58.27.58.47S35.86,4.46,35.34,4.46Z"></path><rect class="cls-1" x="38.97" y="1.9" width="1.94" height="6.72"></rect><path class="cls-1" d="M72.85,1.9H70.28V8.62h2.94a3.26,3.26,0,0,0,3.14-3.37,2.41,2.41,0,0,0,0-.38A3.25,3.25,0,0,0,72.85,1.9ZM74.4,5.26a1.3,1.3,0,0,1,0,.34,1.48,1.48,0,0,1-1.64,1.29h-.53V3.62h.53A1.51,1.51,0,0,1,74.4,5.26Z"></path><polygon class="cls-1" points="81.55 3.53 81.55 1.9 77.28 1.9 77.28 8.62 81.55 8.62 81.54 6.98 79.21 6.98 79.21 6 81.27 6 81.27 4.41 79.21 4.41 79.21 3.53 81.55 3.53"></polygon><path class="cls-1" d="M69.27,4.09a3,3,0,0,0,0-.31,2.21,2.21,0,0,0-2.5-1.88H64V8.62H65.9V6.23H66l1.31,2.39h2.2L68,6A2,2,0,0,0,69.27,4.09Zm-2,.06c0,.41-.2.59-.64.59H65.9V3.58h.76C67.09,3.58,67.3,3.77,67.3,4.15Z"></path><path class="cls-1" d="M54.22,1.9H51.65V8.62h2.94a3.26,3.26,0,0,0,3.14-3.37,2.41,2.41,0,0,0,0-.38A3.25,3.25,0,0,0,54.22,1.9Zm1.55,3.36a1.3,1.3,0,0,1,0,.34,1.48,1.48,0,0,1-1.64,1.29h-.53V3.62h.53a1.51,1.51,0,0,1,1.65,1.64Z"></path><polygon class="cls-1" points="58.65 8.62 62.92 8.62 62.92 6.98 60.59 6.98 60.59 6 62.65 6 62.65 4.41 60.59 4.41 60.59 3.53 62.92 3.53 62.92 1.9 58.65 1.9 58.65 8.62"></polygon></g></g></g></svg>